<svg width="24" height="24" viewBox="0 0 24 24" fill="none" xmlns="http://www.w3.org/2000/svg">
<path d="M5.54902 3.47911L5.45445 3.1002H5.0639H3.5999C3.41425 3.1002 3.2362 3.02645 3.10493 2.89517L2.75137 3.24872L3.10493 2.89517C2.97365 2.76389 2.8999 2.58585 2.8999 2.4002C2.8999 2.21454 2.97365 2.0365 3.10493 1.90522C3.2362 1.77395 3.41425 1.7002 3.5999 1.7002H5.99989C5.99989 1.7002 5.9999 1.7002 5.9999 1.7002C6.15595 1.7002 6.30752 1.75235 6.43053 1.84835L6.73815 1.45418L6.43053 1.84835C6.55349 1.94431 6.64087 2.07857 6.67882 2.22984C6.67885 2.22992 6.67887 2.23001 6.67889 2.23009L7.05076 3.72119L7.14529 4.1002H7.5359H20.3996C20.5189 4.10026 20.6362 4.1308 20.7403 4.18892C20.8445 4.24703 20.9321 4.3308 20.9948 4.43227C21.0575 4.53374 21.0932 4.64954 21.0986 4.7687C21.1039 4.88781 21.0788 5.00632 21.0255 5.11299C21.0255 5.11302 21.0255 5.11306 21.0254 5.11309L17.4255 12.313L17.4254 12.3131C17.3673 12.4294 17.278 12.5271 17.1675 12.5955C17.057 12.6639 16.9296 12.7001 16.7996 12.7002H8.8967H8.6896L8.54315 12.8466L7.34315 14.0466L6.4896 14.9002H7.6967H17.9999C18.1856 14.9002 18.3636 14.9739 18.4949 15.1052C18.6262 15.2365 18.6999 15.4145 18.6999 15.6002C18.6999 15.7858 18.6262 15.9639 18.4949 16.0952C18.3636 16.2264 18.1856 16.3002 17.9999 16.3002H7.6967C6.00385 16.3002 5.15637 14.254 6.35346 13.0569L7.42486 11.9867L7.6253 11.7865L7.55656 11.5117L5.92696 4.99569L5.92699 4.99568L5.92568 4.99068C5.92314 4.98096 5.92082 4.97118 5.9187 4.96135L5.91699 4.9534L5.91502 4.94551L5.54902 3.47911ZM18.6999 19.8002C18.6999 20.145 18.5629 20.4756 18.3191 20.7194C18.0753 20.9632 17.7447 21.1002 17.3999 21.1002C17.0551 21.1002 16.7245 20.9632 16.4807 20.7194C16.2369 20.4756 16.0999 20.145 16.0999 19.8002C16.0999 19.4554 16.2369 19.1248 16.4807 18.881C16.7245 18.6372 17.0551 18.5002 17.3999 18.5002C17.7447 18.5002 18.0753 18.6372 18.3191 18.881C18.5629 19.1248 18.6999 19.4554 18.6999 19.8002ZM8.71914 20.7194C8.47534 20.9632 8.14468 21.1002 7.7999 21.1002C7.45512 21.1002 7.12446 20.9632 6.88066 20.7194C6.63687 20.4756 6.4999 20.145 6.4999 19.8002C6.4999 19.4554 6.63687 19.1248 6.88066 18.881C7.12446 18.6372 7.45512 18.5002 7.7999 18.5002C8.14468 18.5002 8.47534 18.6372 8.71914 18.881C8.96294 19.1248 9.0999 19.4554 9.0999 19.8002C9.0999 20.145 8.96294 20.4756 8.71914 20.7194Z" fill="#6B7280" stroke="#6B7280"/>
</svg>
