<svg width="24" height="24" viewBox="0 0 24 24" fill="none" xmlns="http://www.w3.org/2000/svg">
<path d="M15.6 7.2001C15.6 8.15488 15.2207 9.07055 14.5455 9.74568C13.8704 10.4208 12.9547 10.8001 12 10.8001C11.0452 10.8001 10.1295 10.4208 9.45437 9.74568C8.77924 9.07055 8.39995 8.15488 8.39995 7.2001C8.39995 6.24532 8.77924 5.32964 9.45437 4.65451C10.1295 3.97938 11.0452 3.6001 12 3.6001C12.9547 3.6001 13.8704 3.97938 14.5455 4.65451C15.2207 5.32964 15.6 6.24532 15.6 7.2001ZM21.6 9.6001C21.6 10.2366 21.3471 10.8471 20.897 11.2972C20.4469 11.7472 19.8365 12.0001 19.2 12.0001C18.5634 12.0001 17.953 11.7472 17.5029 11.2972C17.0528 10.8471 16.8 10.2366 16.8 9.6001C16.8 8.96358 17.0528 8.35313 17.5029 7.90304C17.953 7.45295 18.5634 7.2001 19.2 7.2001C19.8365 7.2001 20.4469 7.45295 20.897 7.90304C21.3471 8.35313 21.6 8.96358 21.6 9.6001ZM16.8 18.0001C16.8 16.7271 16.2942 15.5062 15.3941 14.606C14.4939 13.7058 13.273 13.2001 12 13.2001C10.7269 13.2001 9.50601 13.7058 8.60584 14.606C7.70566 15.5062 7.19995 16.7271 7.19995 18.0001V21.6001H16.8V18.0001ZM7.19995 9.6001C7.19995 10.2366 6.9471 10.8471 6.49701 11.2972C6.04692 11.7472 5.43647 12.0001 4.79995 12.0001C4.16343 12.0001 3.55298 11.7472 3.1029 11.2972C2.65281 10.8471 2.39995 10.2366 2.39995 9.6001C2.39995 8.96358 2.65281 8.35313 3.1029 7.90304C3.55298 7.45295 4.16343 7.2001 4.79995 7.2001C5.43647 7.2001 6.04692 7.45295 6.49701 7.90304C6.9471 8.35313 7.19995 8.96358 7.19995 9.6001ZM19.2 21.6001V18.0001C19.2017 16.78 18.8919 15.5797 18.3 14.5129C18.832 14.3767 19.3881 14.3639 19.9258 14.4754C20.4635 14.5868 20.9687 14.8196 21.4028 15.156C21.8369 15.4924 22.1884 15.9235 22.4305 16.4164C22.6726 16.9092 22.799 17.4509 22.8 18.0001V21.6001H19.2ZM5.69995 14.5129C5.10805 15.5798 4.79827 16.78 4.79995 18.0001V21.6001H1.19995V18.0001C1.19972 17.4505 1.32531 16.9082 1.56709 16.4147C1.80887 15.9212 2.16042 15.4896 2.59481 15.153C3.0292 14.8164 3.53489 14.5837 4.07312 14.4727C4.61136 14.3618 5.16785 14.3755 5.69995 14.5129Z" fill="#6B7280"/>
</svg>
